<?xml version="1.0" encoding="UTF-8" standalone="no"?>
<svg
   xmlns:dc="http://purl.org/dc/elements/1.1/"
   xmlns:cc="http://creativecommons.org/ns#"
   xmlns:rdf="http://www.w3.org/1999/02/22-rdf-syntax-ns#"
   xmlns:svg="http://www.w3.org/2000/svg"
   xmlns="http://www.w3.org/2000/svg"
   xmlns:xlink="http://www.w3.org/1999/xlink"
   xmlns:sodipodi="http://sodipodi.sourceforge.net/DTD/sodipodi-0.dtd"
   xmlns:inkscape="http://www.inkscape.org/namespaces/inkscape"
   version="1.1"
   width="1000"
   height="398.20737"
   id="svg2"
   inkscape:version="1.0.2-2 (e86c870879, 2021-01-15)"
   sodipodi:docname="YouTube_2005.svg"
   inkscape:export-filename="C:\Users\tjdru\OneDrive\Pictures\Logos\Internet\youtubelogo2005.png"
   inkscape:export-xdpi="145.74185"
   inkscape:export-ydpi="145.74185">
  <sodipodi:namedview
     pagecolor="#ffffff"
     bordercolor="#666666"
     borderopacity="1"
     objecttolerance="10"
     gridtolerance="10"
     guidetolerance="10"
     inkscape:pageopacity="0"
     inkscape:pageshadow="2"
     inkscape:window-width="1366"
     inkscape:window-height="705"
     id="namedview41"
     showgrid="false"
     inkscape:zoom="1"
     inkscape:cx="587.98395"
     inkscape:cy="183.7011"
     inkscape:window-x="-8"
     inkscape:window-y="-8"
     inkscape:window-maximized="1"
     inkscape:current-layer="layer2"
     inkscape:snap-global="true"
     inkscape:document-rotation="0"
     inkscape:snap-page="false"
     inkscape:snap-nodes="true"
     inkscape:snap-bbox="false"
     inkscape:bbox-paths="false"
     inkscape:bbox-nodes="true" />
  <metadata
     id="metadata23">
    <rdf:RDF>
      <cc:Work
         rdf:about="">
        <dc:format>image/svg+xml</dc:format>
        <dc:type
           rdf:resource="http://purl.org/dc/dcmitype/StillImage" />
        <dc:title></dc:title>
      </cc:Work>
    </rdf:RDF>
  </metadata>
  <defs
     id="defs4">
    <linearGradient
       inkscape:collect="always"
       id="linearGradient2349">
      <stop
         style="stop-color:#dcdcdc;stop-opacity:1"
         offset="0"
         id="stop2347" />
      <stop
         style="stop-color:#ffffff;stop-opacity:1;"
         offset="1"
         id="stop2345" />
    </linearGradient>
    <linearGradient
       inkscape:collect="always"
       id="linearGradient1847">
      <stop
         style="stop-color:#525252;stop-opacity:1"
         offset="0"
         id="stop1845" />
      <stop
         style="stop-color:#333333;stop-opacity:1;"
         offset="1"
         id="stop1843" />
    </linearGradient>
    <linearGradient
       id="linearGradient6754"
       inkscape:collect="always">
      <stop
         id="stop6756"
         offset="0"
         style="stop-color:#ffd3d3;stop-opacity:1" />
      <stop
         style="stop-color:#ff6f6f;stop-opacity:0.37647059;"
         offset="0.76420587"
         id="stop6768" />
      <stop
         id="stop6758"
         offset="1"
         style="stop-color:#ff3333;stop-opacity:0" />
    </linearGradient>
    <linearGradient
       inkscape:collect="always"
       id="linearGradient3063">
      <stop
         style="stop-color:#b80f0f;stop-opacity:1"
         offset="0"
         id="stop3065" />
      <stop
         style="stop-color:#ff3333;stop-opacity:1"
         offset="1"
         id="stop3067" />
    </linearGradient>
    <linearGradient
       x1="345.06525"
       y1="1071.3171"
       x2="345.06525"
       y2="-135.11966"
       id="linearGradient3049"
       gradientUnits="userSpaceOnUse"
       gradientTransform="scale(1.58195,0.632131)">
      <stop
         id="stop3051"
         style="stop-color:#912420;stop-opacity:1"
         offset="0" />
      <stop
         id="stop3053"
         style="stop-color:#ce332d;stop-opacity:1"
         offset="0.48934084" />
    </linearGradient>
    <linearGradient
       gradientTransform="scale(1.58195,0.632131)"
       gradientUnits="userSpaceOnUse"
       id="linearGradient3039"
       y2="-135.11966"
       x2="345.06525"
       y1="1071.3171"
       x1="345.06525">
      <stop
         offset="0"
         style="stop-color:#912420;stop-opacity:1"
         id="stop3041" />
      <stop
         offset="0.96720499"
         style="stop-color:#ffeeee;stop-opacity:1"
         id="stop3045" />
    </linearGradient>
    <linearGradient
       id="linearGradient3014">
      <stop
         id="stop3016"
         style="stop-color:#ffffff;stop-opacity:1"
         offset="0" />
      <stop
         id="stop3018"
         style="stop-color:#b3b3b3;stop-opacity:1"
         offset="1" />
    </linearGradient>
    <linearGradient
       x1="345.06525"
       y1="1071.3171"
       x2="345.06525"
       y2="-135.11966"
       id="g"
       gradientUnits="userSpaceOnUse"
       gradientTransform="scale(1.58195,0.632131)">
      <stop
         id="stop7"
         style="stop-color:#590000;stop-opacity:1"
         offset="0" />
      <stop
         id="stop9"
         style="stop-color:#ff0000;stop-opacity:1"
         offset="0.96720499" />
      <stop
         id="stop11"
         style="stop-color:#ffeeee;stop-opacity:1"
         offset="0.96720499" />
    </linearGradient>
    <linearGradient
       x1="345.06525"
       y1="1071.3171"
       x2="345.06525"
       y2="-135.11966"
       id="linearGradient3774"
       xlink:href="#g"
       gradientUnits="userSpaceOnUse"
       gradientTransform="scale(1.58195,0.632131)" />
    <linearGradient
       x1="339.63776"
       y1="1097.2302"
       x2="339.63776"
       y2="-635.19543"
       id="linearGradient3774-1"
       xlink:href="#g-7"
       gradientUnits="userSpaceOnUse"
       gradientTransform="matrix(1.58195,0,0,0.632131,320.259,117.629)" />
    <linearGradient
       x1="345.06525"
       y1="1071.3171"
       x2="345.06525"
       y2="-135.11966"
       id="g-7"
       gradientUnits="userSpaceOnUse"
       gradientTransform="scale(1.58195,0.632131)">
      <stop
         id="stop7-4"
         style="stop-color:#590000;stop-opacity:1"
         offset="0" />
      <stop
         id="stop9-0"
         style="stop-color:#ff0000;stop-opacity:1"
         offset="0.96720499" />
      <stop
         id="stop11-9"
         style="stop-color:#ffeeee;stop-opacity:1"
         offset="0.96720499" />
    </linearGradient>
    <linearGradient
       x1="339.63776"
       y1="1097.2302"
       x2="339.63776"
       y2="-635.19543"
       id="linearGradient3943"
       xlink:href="#g-7"
       gradientUnits="userSpaceOnUse"
       gradientTransform="matrix(1.58195,0,0,0.632131,-137.182,-82.6614)" />
    <linearGradient
       x1="339.63776"
       y1="1097.2302"
       x2="339.63776"
       y2="-635.19543"
       id="linearGradient3943-2"
       xlink:href="#g-7-7"
       gradientUnits="userSpaceOnUse"
       gradientTransform="matrix(1.58195,0,0,0.632131,-137.182,-82.6614)" />
    <linearGradient
       x1="345.06525"
       y1="1071.3171"
       x2="345.06525"
       y2="-135.11966"
       id="g-7-7"
       gradientUnits="userSpaceOnUse"
       gradientTransform="scale(1.58195,0.632131)">
      <stop
         id="stop7-4-7"
         style="stop-color:#590000;stop-opacity:1"
         offset="0" />
      <stop
         id="stop9-0-1"
         style="stop-color:#ff0000;stop-opacity:1"
         offset="0.96720499" />
      <stop
         id="stop11-9-2"
         style="stop-color:#ffeeee;stop-opacity:1"
         offset="0.96720499" />
    </linearGradient>
    <linearGradient
       x1="339.63776"
       y1="1097.2302"
       x2="339.63776"
       y2="-635.19543"
       id="linearGradient3965"
       xlink:href="#g-7-7"
       gradientUnits="userSpaceOnUse"
       gradientTransform="matrix(1.58195,0,0,0.632131,6.70141,-52.6713)" />
    <linearGradient
       x1="339.63776"
       y1="1097.2302"
       x2="339.63776"
       y2="-635.19543"
       id="linearGradient4014"
       xlink:href="#g-7-7"
       gradientUnits="userSpaceOnUse"
       gradientTransform="matrix(1.58195,0,0,0.632131,-0.584086,0.75571)" />
    <linearGradient
       x1="339.63776"
       y1="1097.2302"
       x2="339.63776"
       y2="-635.19543"
       id="linearGradient4027"
       xlink:href="#g-7-7"
       gradientUnits="userSpaceOnUse"
       gradientTransform="matrix(1.58195,0,0,0.632131,-0.584086,0.75571)" />
    <linearGradient
       x1="339.63776"
       y1="1107.8513"
       x2="339.63776"
       y2="-635.19543"
       id="linearGradient4038"
       xlink:href="#linearGradient3039"
       gradientUnits="userSpaceOnUse"
       gradientTransform="matrix(1.58195,0,0,0.632131,-0.584086,0.75571)" />
    <linearGradient
       x1="543.32074"
       y1="441.51886"
       x2="543.32074"
       y2="817.55579"
       id="linearGradient3020"
       xlink:href="#linearGradient3014"
       gradientUnits="userSpaceOnUse" />
    <linearGradient
       inkscape:collect="always"
       xlink:href="#linearGradient3063"
       id="linearGradient3069"
       x1="532.82074"
       y1="694.12231"
       x2="533.97131"
       y2="480.04016"
       gradientUnits="userSpaceOnUse"
       gradientTransform="matrix(0.59572904,0,0,0.59572904,148.55443,-157.50902)" />
    <linearGradient
       inkscape:collect="always"
       xlink:href="#linearGradient6754"
       id="linearGradient6752"
       x1="802.93817"
       y1="313.49374"
       x2="744.25781"
       y2="412.44492"
       gradientUnits="userSpaceOnUse"
       gradientTransform="matrix(0.59572904,0,0,0.59572904,148.55443,-157.50902)" />
    <linearGradient
       y2="325.65271"
       x2="323.49701"
       y1="175.4245"
       x1="323.49701"
       gradientUnits="userSpaceOnUse"
       id="lozenge_1_"
       gradientTransform="matrix(1.6501574,0,0,1.6501574,-162.96613,-162.86442)">
      <stop
         id="stop45"
         style="stop-color:#e42526;stop-opacity:1"
         offset="0" />
      <stop
         offset="0.72937906"
         style="stop-color:#de2426;stop-opacity:1;"
         id="stop109" />
      <stop
         id="stop47"
         style="stop-color:#bf1f26;stop-opacity:1"
         offset="1" />
    </linearGradient>
    <linearGradient
       inkscape:collect="always"
       xlink:href="#linearGradient3063"
       id="linearGradient258"
       gradientUnits="userSpaceOnUse"
       gradientTransform="matrix(0.59572904,0,0,0.59572904,148.55443,-157.50902)"
       x1="532.82074"
       y1="694.12231"
       x2="533.97131"
       y2="480.04016" />
    <linearGradient
       inkscape:collect="always"
       xlink:href="#linearGradient1847"
       id="linearGradient1849"
       x1="126.03348"
       y1="44.000004"
       x2="126.03348"
       y2="80.000008"
       gradientUnits="userSpaceOnUse"
       gradientTransform="matrix(0.99355379,0,0,0.9891879,-0.0062304,0.44422459)" />
    <linearGradient
       inkscape:collect="always"
       xlink:href="#linearGradient1847"
       id="linearGradient2180"
       gradientUnits="userSpaceOnUse"
       gradientTransform="matrix(0.96787536,0,0,0.9891879,6.1931565,0.44422459)"
       x1="126.03348"
       y1="44.000004"
       x2="126.03348"
       y2="80.000008" />
    <linearGradient
       inkscape:collect="always"
       xlink:href="#linearGradient1847"
       id="linearGradient2192"
       gradientUnits="userSpaceOnUse"
       gradientTransform="matrix(0.99355379,0,0,0.9891879,-0.0062304,0.44422459)"
       x1="126.03348"
       y1="44.000004"
       x2="126.03348"
       y2="80.000008" />
    <linearGradient
       x1="543.32074"
       y1="441.51886"
       x2="543.32074"
       y2="817.55579"
       id="linearGradient3020-7"
       xlink:href="#linearGradient3014"
       gradientUnits="userSpaceOnUse"
       gradientTransform="matrix(0.59979123,0,0,0.59979123,111.27181,-159.35793)" />
    <linearGradient
       inkscape:collect="always"
       xlink:href="#linearGradient2349"
       id="linearGradient2351"
       x1="328.03348"
       y1="200.5"
       x2="328.03348"
       y2="105.26778"
       gradientUnits="userSpaceOnUse" />
  </defs>
  <g
     inkscape:groupmode="layer"
     id="layer2"
     inkscape:label="Layer 1"
     transform="translate(0.966522)"
     style="display:inline">
    <g
       id="g2360"
       transform="matrix(1.5181443,0,0,1.5181443,0.50079787,-2.180079e-6)">
      <path
         sodipodi:nodetypes="ccccccccccccccccccc"
         inkscape:connector-curvature="0"
         d="m 417.72396,262.04718 c -13.92516,-0.24709 -30.41196,-0.63249 -36.63733,-0.85644 -41.80005,-1.50376 -70.49838,-3.11111 -76.23236,-4.26967 -8.17317,-1.6514 -17.30677,-7.18202 -22.60779,-13.68959 -8.49594,-10.42965 -13.02045,-23.08391 -15.21808,-42.56228 -5.10922,-45.2848 -4.99589,-98.08275 0.30436,-141.783513 2.32126,-19.13898 8.09642,-32.975204 17.7904,-42.622554 5.53227,-5.505668 10.84738,-8.5877018 17.93678,-10.4008627 15.33886,-3.9230247 135.43936,-7.047278 208.49135,-5.42362445 42.19532,0.93783245 87.79182,2.88201795 99.91068,4.26008215 15.6728,1.782195 26.67728,9.898991 34.29278,25.294101 5.74998,11.623925 7.5996,20.67147 9.9255,48.551917 1.84271,22.088854 2.28046,35.840124 1.95221,61.325434 -0.39282,30.50166 -2.3324,57.36654 -5.2308,72.45245 -3.06318,15.94358 -10.31409,29.53937 -19.67705,36.89533 -7.23495,5.68411 -14.93838,8.21992 -27.04812,8.90371 -3.60416,0.20351 -8.16149,0.49435 -10.1274,0.64632 -6.99296,0.54054 -44.4097,2.05808 -64.93447,2.63359 -30.50601,0.85538 -83.86914,1.16055 -112.89066,0.6456 z"
         id="path17"
         style="fill:url(#linearGradient258);fill-opacity:1;stroke:none;stroke-width:0.595729" />
      <path
         sodipodi:nodetypes="ccccccccccccccccccc"
         style="fill:url(#linearGradient6752);fill-opacity:1;stroke:none;stroke-width:0.595729"
         id="path6750"
         d="m 414.50336,262.05441 c -13.63479,-0.23999 -29.77781,-0.6143 -35.87336,-0.83183 -40.92842,-1.46053 -69.02833,-3.02167 -74.64274,-4.14693 -8.00274,-1.60392 -16.94588,-6.97556 -22.13637,-13.29607 -8.31878,-10.12985 -12.74895,-22.42035 -14.90075,-41.33882 -5.00268,-43.98307 -4.89171,-95.26333 0.29801,-137.707891 2.27286,-18.588825 7.92759,-32.027322 17.41943,-41.397354 5.41691,-5.347407 10.6212,-8.340844 17.56276,-10.10189 15.01902,-3.8102533 132.61516,-6.8447005 204.14384,-5.2677163 41.31545,0.9108697 85.96117,2.7991703 97.82732,4.1376243 15.34598,1.730962 26.121,9.614441 33.5777,24.567014 5.63008,11.289792 7.44113,20.07726 9.71853,47.156272 1.80429,21.453901 2.2329,34.809891 1.9115,59.562611 -0.38463,29.62488 -2.28376,55.71752 -5.12173,70.36978 -2.9993,15.48528 -10.09902,28.69025 -19.26673,35.83477 -7.08409,5.52071 -14.62689,7.98363 -26.48411,8.64776 -3.52901,0.19766 -7.9913,0.48015 -9.91622,0.62774 -6.84715,0.52501 -43.48366,1.99892 -63.58045,2.55789 -29.86989,0.83079 -82.12027,1.12719 -110.53663,0.62704 z"
         inkscape:connector-curvature="0" />
      <path
         id="y_2_"
         style="fill:url(#linearGradient2192);fill-opacity:1;stroke:none;stroke-width:1.76767"
         d="m 57.04706,141.42826 v 68.93086 H 31.263246 V 141.42826 L -0.966522,41.08588 h 27.037195 l 18.263533,65.96421 17.905427,-65.96421 h 27.037193 z m 99.32044,-16.4038 c 0,-13.61166 -2.86486,-23.73315 -7.69933,-30.015461 -6.44594,-8.725416 -16.65205,-12.215592 -27.03719,-12.215592 -11.63852,0 -20.59125,3.490176 -27.037198,12.215592 -5.01352,6.456821 -7.699334,16.752811 -7.699334,30.189971 v 45.02319 c 0,13.43715 2.327706,22.6861 7.341225,29.14292 6.445947,8.55092 17.010157,13.26264 27.395307,13.26264 10.20609,0 20.94935,-4.53722 27.57435,-13.26264 5.01352,-6.28231 7.16217,-15.70577 7.16217,-29.14292 z m -24.53043,47.64082 c 0,12.56984 -2.68582,18.84692 -10.20609,18.84692 -7.52027,0 -10.20609,-6.19851 -10.20609,-18.84692 v -50.08394 c 0,-12.56788 2.68582,-18.4979 10.20609,-18.4979 7.52027,0 10.38514,5.79238 10.38514,18.4979 z m 83.95353,37.69384 v -13.78618 c -9.07019,10.29601 -16.74495,15.53126 -24.94301,15.53126 -7.32592,0 -12.39969,-3.48378 -15.00069,-9.77248 -1.58526,-3.83284 -2.61639,-9.77248 -2.61639,-18.49789 V 83.491437 h 23.89643 V 186.27695 c 0,3.52917 2.09314,4.88623 5.05838,4.88623 4.53509,0 8.72133,-4.0137 13.77969,-10.99404 V 83.665951 h 23.89646 V 210.35912 Z"
         sodipodi:nodetypes="cccccccccccccccccccccccccccccccccccccccccc" />
      <path
         id="T-4"
         style="display:inline;fill:#a60707;fill-opacity:1;stroke:none;stroke-width:1.76108"
         d="M 378.08709,38.255689 V 62.424674 H 350.13473 V 208.70672 H 324.99519 V 62.424674 H 298.44926 V 38.255689 Z m 48.81598,170.451031 v -14.81186 c -8.91401,10.40854 -18.08164,16.57602 -26.13854,16.57602 -7.19979,0 -12.1861,-3.52162 -14.74241,-9.8793 -1.55788,-3.87449 -2.57136,-9.87929 -2.57136,-18.70008 V 81.687252 h 22.29752 V 183.92199 c 0,3.56949 3.24457,6.43964 6.15876,6.43964 4.45702,0 10.19618,-4.05757 15.16747,-11.11421 V 81.863672 H 448.9345 V 208.70672 Z M 516.73801,79.9231 c -8.20873,0 -16.24644,5.116055 -23.42908,14.289684 V 38.255689 H 471.24795 V 208.70672 h 22.06098 v -12.70195 c 7.35365,9.52646 15.56238,14.46611 23.42908,14.46611 8.8928,0 15.45299,-4.91862 18.29864,-14.28969 1.60094,-5.27208 2.39422,-13.58403 2.39422,-25.4039 v -50.63136 c 0,-11.99628 -1.47123,-20.309282 -2.90727,-25.227475 C 531.68402,85.193343 525.63081,79.9231 516.73801,79.9231 Z m -2.56522,92.0891 c 0,12.70196 -2.90727,17.46518 -9.23483,17.46518 -3.59132,0 -7.86671,-1.94057 -11.62903,-5.82172 v -76.91734 c 3.76232,-3.70473 7.86669,-5.82173 11.62903,-5.82173 6.49858,0 9.23483,3.70474 9.23483,16.40668 z m 111.68283,-22.93406 v -25.93315 c 0,-13.58402 -2.61066,-23.437332 -7.20962,-29.814287 -6.21559,-8.618578 -15.10587,-13.231193 -26.43527,-13.231193 -11.32942,0 -20.25046,4.590703 -26.7786,13.231193 -4.80128,6.354865 -7.55294,16.935927 -7.55294,30.343547 v 44.45681 c 0,13.4076 3.03114,22.97731 7.7246,29.28504 6.46465,8.6881 15.27752,13.05478 26.95025,13.05478 11.67272,0 20.7643,-4.59105 26.95025,-13.76044 2.74023,-4.06182 4.55576,-8.6328 5.14973,-13.76045 0.26463,-2.28454 0.85828,-7.58588 0.85828,-14.99535 v -2.37926 h -22.10287 c 0,9.17363 0.0555,13.50246 -0.17167,14.72837 -1.14634,6.18506 -5.87731,10.11113 -11.37034,10.11113 -7.7246,0 -12.759,-6.75797 -12.759,-18.57909 v -22.75765 z m -46.40386,-32.98978 c 0,-11.81986 5.03438,-15.87035 12.5873,-15.87035 7.38128,0 11.63889,4.40356 11.71368,16.04677 v 13.76044 h -24.30098 z"
         sodipodi:nodetypes="cccccccccccccccccccccccccccccccccccccccccccccccccccccccccccccccccccc" />
      <path
         id="T"
         style="display:inline;fill:url(#linearGradient2351);fill-opacity:1;stroke:none;stroke-width:1.76108"
         d="M 378.08709,41.758291 V 65.927276 H 350.13473 V 212.20932 H 324.99519 V 65.927276 H 298.44926 V 41.758291 Z m 48.81598,170.451029 v -14.81186 c -8.91401,10.40854 -18.08164,16.57602 -26.13854,16.57602 -7.19979,0 -12.1861,-3.52162 -14.74241,-9.8793 -1.55788,-3.87449 -2.57136,-9.87929 -2.57136,-18.70008 V 85.189854 h 22.29752 V 187.42459 c 0,3.56949 3.24457,6.43964 6.15876,6.43964 4.45702,0 10.19618,-4.05757 15.16747,-11.11421 V 85.366274 H 448.9345 V 212.20932 Z M 516.73801,83.425702 c -8.20873,0 -16.24644,5.116055 -23.42908,14.289684 V 41.758291 H 471.24795 V 212.20932 h 22.06098 v -12.70195 c 7.35365,9.52646 15.56238,14.46611 23.42908,14.46611 8.8928,0 15.45299,-4.91862 18.29864,-14.28969 1.60094,-5.27208 2.39422,-13.58403 2.39422,-25.4039 v -50.63136 c 0,-11.99628 -1.47123,-20.30928 -2.90727,-25.227473 -2.83958,-9.725112 -8.89279,-14.995355 -17.78559,-14.995355 z m -2.56522,92.089098 c 0,12.70196 -2.90727,17.46518 -9.23483,17.46518 -3.59132,0 -7.86671,-1.94057 -11.62903,-5.82172 v -76.91734 c 3.76232,-3.70473 7.86669,-5.82173 11.62903,-5.82173 6.49858,0 9.23483,3.70474 9.23483,16.40668 z m 111.68283,-22.93406 v -25.93315 c 0,-13.58402 -2.61066,-23.43733 -7.20962,-29.814285 -6.21559,-8.618578 -15.10587,-13.231193 -26.43527,-13.231193 -11.32942,0 -20.25046,4.590703 -26.7786,13.231193 -4.80128,6.354865 -7.55294,16.935925 -7.55294,30.343545 v 44.45681 c 0,13.4076 3.03114,22.97731 7.7246,29.28504 6.46465,8.6881 15.27752,13.05478 26.95025,13.05478 11.67272,0 20.7643,-4.59105 26.95025,-13.76044 2.74023,-4.06182 4.55576,-8.6328 5.14973,-13.76045 0.26463,-2.28454 0.85828,-7.58588 0.85828,-14.99535 v -2.37926 h -22.10287 c 0,9.17363 0.0555,13.50246 -0.17167,14.72837 -1.14634,6.18506 -5.87731,10.11113 -11.37034,10.11113 -7.7246,0 -12.759,-6.75797 -12.759,-18.57909 v -22.75765 z m -46.40386,-32.98978 c 0,-11.81986 5.03438,-15.87035 12.5873,-15.87035 7.38128,0 11.63889,4.40356 11.71368,16.04677 v 13.76044 h -24.30098 z"
         sodipodi:nodetypes="cccccccccccccccccccccccccccccccccccccccccccccccccccccccccccccccccccc" />
    </g>
  </g>
</svg>
